<svg width="27" height="27" viewBox="0 0 27 27" fill="none" xmlns="http://www.w3.org/2000/svg">
<path d="M26.7207 3.19748C25.7668 3.74008 24.7394 4.10551 23.6623 4.27161C24.7632 3.42725 25.6046 2.09289 26.0048 0.501077C24.9752 1.28176 23.8353 1.84928 22.6219 2.1538C21.6529 0.827745 20.2665 0 18.7373 0C15.2982 0 12.7719 4.10551 13.5484 8.36881C9.12515 8.08367 5.19941 5.37066 2.5736 1.24854C1.1785 4.31037 1.85118 8.31898 4.22176 10.3482C3.3501 10.3122 2.53034 10.0049 1.81224 9.49554C1.75385 12.6515 3.52313 15.6054 6.08406 16.2642C5.33568 16.5245 4.51376 16.5854 3.67886 16.3805C4.35586 19.088 6.3263 21.0563 8.65363 21.1117C6.41066 23.3596 3.59235 24.3645 0.765381 23.9382C3.12299 25.8733 5.91967 27 8.92616 27C18.8151 27 24.3998 16.3113 24.0624 6.72439C25.105 5.76653 26.0069 4.56506 26.7207 3.19748V3.19748Z" fill="white"/>
</svg>
